<svg xmlns="http://www.w3.org/2000/svg" version="1.1" xmlns:xlink="http://www.w3.org/1999/xlink" width="2000" height="216" viewBox="0 0 2000 216"><svg xml:space="preserve" width="2000" height="216" data-version="2" data-id="lg_b0OQ2EyL58By62XH56" viewBox="0 0 566 216" x="0" y="0"><rect width="100%" height="100%" fill="transparent"></rect><path fill="#fff" d="M290.4 38.867h7.35v73.5h-7.35v-35.7h-38.58v35.7h-7.35v-73.5h7.35v30.45h38.58Z"></path><rect width="53.28" height="73.5" x="-26.64" y="-36.75" fill="none" rx="0" ry="0" transform="translate(271.61 76.12)"></rect><path fill="#fff" d="M310.35 59.867h7.35v52.5h-7.35Zm3.73-9.18q-1.78 0-3.02-1.19-1.23-1.18-1.23-2.96 0-1.79 1.23-2.97 1.24-1.18 3.02-1.18 1.73 0 2.97 1.18 1.23 1.18 1.23 2.97 0 1.78-1.21 2.96-1.2 1.19-2.99 1.19"></path><rect width="8.45" height="69.98" x="-4.22" y="-34.99" fill="none" rx="0" ry="0" transform="translate(314.56 77.88)"></rect><path fill="#fff" d="M372.99 33.617h7.35v78.75h-7.35v-9.81q-2.73 5.04-7.48 8.11-4.76 3.07-11.27 3.07-5.72 0-10.71-2.15-4.98-2.16-8.79-5.96-3.81-3.81-5.96-8.8-2.15-4.98-2.15-10.71 0-5.72 2.15-10.73 2.15-5.02 5.96-8.82 3.81-3.81 8.79-5.96 4.99-2.15 10.71-2.15 6.51 0 11.27 3.07 4.75 3.07 7.48 8.06Zm-18.69 72.98q5.61 0 9.66-2.76 4.04-2.75 6.22-7.43 2.18-4.67 2.18-10.29 0-5.77-2.21-10.42-2.2-4.64-6.25-7.37-4.04-2.73-9.6-2.73-5.57 0-10.14 2.75-4.56 2.76-7.29 7.43-2.73 4.67-2.73 10.34 0 5.73 2.78 10.37 2.78 4.65 7.38 7.38 4.59 2.73 10 2.73"></path><rect width="53.71" height="80.12" x="-26.86" y="-40.06" fill="none" rx="0" ry="0" transform="translate(353.99 74.18)"></rect><path fill="#fff" d="M435.78 33.617h7.35v78.75h-7.35v-9.81q-2.73 5.04-7.48 8.11-4.76 3.07-11.27 3.07-5.72 0-10.71-2.15-4.98-2.16-8.79-5.96-3.81-3.81-5.96-8.8-2.15-4.98-2.15-10.71 0-5.72 2.15-10.73 2.15-5.02 5.96-8.82 3.81-3.81 8.79-5.96 4.99-2.15 10.71-2.15 6.51 0 11.27 3.07 4.75 3.07 7.48 8.06Zm-18.69 72.98q5.61 0 9.66-2.76 4.04-2.75 6.22-7.43 2.18-4.67 2.18-10.29 0-5.77-2.21-10.42-2.2-4.64-6.25-7.37-4.04-2.73-9.6-2.73-5.57 0-10.14 2.75-4.56 2.76-7.29 7.43-2.73 4.67-2.73 10.34 0 5.73 2.78 10.37 2.78 4.65 7.38 7.38 4.59 2.73 10 2.73"></path><rect width="53.71" height="80.12" x="-26.86" y="-40.06" fill="none" rx="0" ry="0" transform="translate(416.77 74.18)"></rect><path fill="#fff" d="M478.46 113.737q-7.25 0-13.2-3.73-5.96-3.73-9.51-10-3.54-6.27-3.54-13.89 0-5.77 2.05-10.79 2.04-5.01 5.64-8.82 3.6-3.8 8.37-5.95 4.78-2.16 10.19-2.16 5.83 0 10.74 2.31 4.9 2.31 8.45 6.46 3.54 4.15 5.35 9.71 1.81 5.57 1.5 12.03h-44.52q.63 4.98 3.18 8.92 2.54 3.94 6.51 6.22 3.96 2.29 8.79 2.34 5.25 0 9.48-2.73 4.22-2.73 6.79-7.51l7.46 1.73q-3.15 6.99-9.5 11.42-6.36 4.44-14.23 4.44m-18.69-30.77h37.33q-.37-4.88-2.97-8.95-2.6-4.07-6.69-6.51-4.1-2.44-8.98-2.44-4.88 0-8.93 2.39-4.04 2.39-6.61 6.46-2.57 4.07-3.15 9.05"></path><rect width="52.45" height="55.34" x="-26.22" y="-27.67" fill="none" rx="0" ry="0" transform="translate(478.93 86.57)"></rect><path fill="#fff" d="M559.26 79.877v32.49h-7.35v-31.02q0-4.31-2.1-7.83-2.1-3.51-5.62-5.61-3.52-2.1-7.82-2.1-4.26 0-7.8 2.1t-5.64 5.61q-2.1 3.52-2.1 7.83v31.02h-7.35v-52.5h7.35v7.25q2.78-3.99 7.24-6.35 4.46-2.37 9.71-2.37 5.94 0 10.82 2.89t7.77 7.77q2.89 4.88 2.89 10.82"></path><rect width="45.78" height="53.97" x="-22.89" y="-26.98" fill="none" rx="0" ry="0" transform="translate(536.87 85.88)"></rect><path fill="#fff" d="M270.14 207.467q-5.88 0-11.37-1.84-5.48-1.83-9.58-5.25-4.09-3.41-5.77-8.13l6.87-2.58q1.16 3.26 4.23 5.6 3.07 2.33 7.19 3.59 4.12 1.26 8.43 1.26 5.04 0 9.4-1.68 4.35-1.68 7.03-4.7 2.68-3.02 2.68-7.11 0-4.15-2.78-6.83-2.79-2.67-7.17-4.22-4.38-1.55-9.16-2.39-7.51-1.31-13.47-3.57-5.96-2.26-9.42-6.38-3.47-4.12-3.47-10.89 0-6.36 3.68-11.03 3.67-4.67 9.69-7.24 6.01-2.58 12.99-2.58 5.72 0 11.18 1.79 5.46 1.78 9.64 5.2 4.17 3.41 6.01 8.34l-6.99 2.52q-1.15-3.3-4.22-5.64t-7.17-3.57q-4.09-1.23-8.45-1.23-4.99-.06-9.32 1.65t-7.01 4.73q-2.68 3.01-2.68 7.06 0 4.72 2.5 7.27 2.49 2.54 6.8 3.8 4.3 1.26 9.71 2.26 7.03 1.21 13.07 3.76 6.04 2.54 9.71 6.77 3.68 4.22 3.68 10.42 0 6.3-3.68 11-3.67 4.7-9.68 7.27-6.01 2.57-13.1 2.57"></path><rect width="53.55" height="75.97" x="-26.77" y="-37.98" fill="none" rx="0" ry="0" transform="translate(270.7 169.98)"></rect><path fill="#fff" d="M350.99 153.607h7.35v52.5h-7.35l-.26-9.77q-2.58 4.99-7.2 8.06-4.62 3.07-11.02 3.07-5.78 0-10.82-2.18t-8.87-6.01q-3.83-3.83-5.98-8.87-2.16-5.04-2.16-10.82 0-5.67 2.13-10.65 2.13-4.99 5.88-8.77 3.75-3.78 8.72-5.91 4.96-2.12 10.63-2.12 6.56 0 11.44 3.12t7.77 8.16Zm-18.64 46.72q5.62 0 9.66-2.75 4.04-2.76 6.22-7.43 2.18-4.68 2.18-10.29 0-5.78-2.2-10.42-2.21-4.65-6.25-7.38-4.04-2.73-9.61-2.73-5.56 0-10.16 2.76-4.59 2.75-7.29 7.42-2.71 4.68-2.71 10.35 0 5.72 2.78 10.37 2.79 4.64 7.38 7.37 4.59 2.73 10 2.73"></path><rect width="53.66" height="55.33" x="-26.83" y="-27.66" fill="none" rx="0" ry="0" transform="translate(332.01 180.3)"></rect><path fill="#fff" d="M379.71 139.897v13.71h15.75v7.35h-15.75v45.15h-7.35v-45.15h-7.2v-7.35h7.2v-13.71q0-3.83 1.86-6.95 1.86-3.13 5.01-4.99 3.15-1.86 6.99-1.86 2.78 0 5.38 1.1t4.64 3.25l-5.25 5.2q-.84-1.05-2.12-1.63-1.29-.57-2.65-.57-2.68 0-4.6 1.89-1.91 1.89-1.91 4.56"></path><rect width="31.08" height="80.01" x="-15.54" y="-40.01" fill="none" rx="0" ry="0" transform="translate(381.2 166.6)"></rect><path fill="#fff" d="M445.8 153.607h7.35v52.5h-7.35l-.26-9.77q-2.57 4.99-7.19 8.06-4.62 3.07-11.03 3.07-5.77 0-10.81-2.18-5.04-2.18-8.87-6.01-3.84-3.83-5.99-8.87-2.15-5.04-2.15-10.82 0-5.67 2.13-10.65 2.12-4.99 5.88-8.77 3.75-3.78 8.71-5.91 4.96-2.12 10.63-2.12 6.56 0 11.45 3.12 4.88 3.12 7.77 8.16Zm-18.63 46.72q5.61 0 9.66-2.75 4.04-2.76 6.22-7.43 2.18-4.68 2.18-10.29 0-5.78-2.21-10.42-2.2-4.65-6.25-7.38-4.04-2.73-9.6-2.73-5.57 0-10.16 2.76-4.6 2.75-7.3 7.42-2.7 4.68-2.7 10.35 0 5.72 2.78 10.37 2.78 4.64 7.38 7.37 4.59 2.73 10 2.73"></path><rect width="53.65" height="55.33" x="-26.82" y="-27.66" fill="none" rx="0" ry="0" transform="translate(426.82 180.3)"></rect><path fill="#fff" d="M463.65 206.107v-52.5H471v7.24q2.79-3.99 7.25-6.35 4.46-2.36 9.71-2.36 3.05 0 5.88.78l-2.99 7.3q-2.21-.68-4.31-.68-4.25 0-7.79 2.1-3.55 2.1-5.65 5.62-2.1 3.51-2.1 7.82v31.03Z"></path><rect width="30.19" height="53.97" x="-15.1" y="-26.98" fill="none" rx="0" ry="0" transform="translate(479.25 179.62)"></rect><path fill="#fff" d="M500.51 153.607h7.35v52.5h-7.35Zm3.73-9.19q-1.79 0-3.02-1.18-1.24-1.18-1.24-2.97 0-1.78 1.24-2.96 1.23-1.19 3.02-1.19 1.73 0 2.96 1.19 1.24 1.18 1.24 2.96 0 1.79-1.21 2.97-1.21 1.18-2.99 1.18"></path><rect width="8.46" height="69.99" x="-4.23" y="-34.99" fill="none" rx="0" ry="0" transform="translate(504.71 171.61)"></rect><path fill="#2ecc40" fill-rule="evenodd" d="m95.654 18.477.112-.056.055-.028.084-.083.055-.056q0-.055.056-.083v-.111l.028-.028v-.084l.028-.055v-.112l.028-.055v-.167l.027-.14.112-.083-.084-.056v.14l-1.586 1.196zm.613-1.169c1.085.39 1.419-.612 1.947-1.252l.14-.111.139-.14zm37.285 147.473c25.404-30.163 41.32-64.526 44.576-104.205a80.693 80.693 0 0 0-4.063-34.642c-1.335-3.673-2.448-7.596-5.732-10.184q-5.51-4.452-11.881-7.68a50.085 50.085 0 0 0-29.05-5.259C117.498 4.036 108.9 8.21 100.97 14.025l-.111.083c-.279.195-.501.39-.279.807.418.279.696 0 1.03-.194 5.899-2.783 11.965-5.148 18.448-6.039 13.467-1.864 24.903 1.726 33.473 12.66 7.18 9.127 9.878 19.896 10.852 31.165 1.03 11.686.056 23.29-2.671 34.67-10.156 42.294-31.164 77.27-68.394 101.561q-.056-.083 0 .028c2.115.807 4.257 1.53 6.316 2.393 1.252.529 2.226.39 3.423-.278a119.648 119.648 0 0 0 30.468-26.072" vector-effect="non-scaling-stroke"></path><path fill="#2ecc40" fill-rule="evenodd" d="M116.423 159.214c20.924-25.46 33.863-54.259 35.894-87.454.835-13.273-.78-26.24-7.596-38.01-6.4-11.018-15.916-17.278-28.938-17.752-7.847-.278-15.137 1.81-22.26 4.814-.056-2.003-.974-.946-1.67-.445a130.778 130.778 0 0 0-28.047 26.795 175.298 175.298 0 0 0-29.912 57.515c-2.282 7.513-3.896 15.137-5.092 22.872-.195 1.336.111 1.725 1.502 1.753 5.51.083 5.51.139 6.289-5.287l.194-1.614a189.21 189.21 0 0 1 29.05-70.23 153.038 153.038 0 0 1 23.818-28.298c.89.668-.612 1.14-.278 1.753q0 .056.083.14h.501l1.113-.335c6.929-1.92 13.913-2.504 20.924-.695 12.243 3.144 19.617 11.547 24.013 22.927 5.204 13.44 5.176 27.324 3.006 41.293a139.125 139.125 0 0 1-21.287 54.537c-10.35 15.86-22.927 29.494-39.845 38.62-.223.14-.556.279-.39.669l.39.222c1.53.557 3.116 1.03 4.563 1.753 1.781.863 3.172.557 4.898-.417a108.518 108.518 0 0 0 29.077-25.126m38.064 8.82a233.73 233.73 0 0 0 47.414-90.626 15.582 15.582 0 0 0-.223-10.128 136.343 136.343 0 0 0-9.237-20.813 186.428 186.428 0 0 1-2.032 20.59 203.123 203.123 0 0 1-25.376 68.923c-10.657 18.309-23.54 34.809-39.957 48.415a119.648 119.648 0 0 1-15.164 10.518c2.726 1.03 5.12 1.865 7.457 2.866 1.419.64 2.532.418 3.84-.39a141.908 141.908 0 0 0 33.278-29.355" vector-effect="non-scaling-stroke"></path><path fill="#2ecc40" fill-rule="evenodd" d="M103.209 136.347c-.306.556-.668 1.085-.78 1.67a72.345 72.345 0 0 1-6.9 21.174c.473-.084.78-.056.918-.167q1.948-2.143 3.812-4.396a130.778 130.778 0 0 0 28.02-62.161c1.948-12.16 1.78-24.292-2.142-36.117-5.37-16.306-17.948-27.408-36.646-25.878-4.675.39-6.344 1.559-8.097 6.4l.167.084 1.169.083c14.802.14 24.875 7.457 30.858 20.674 5.23 11.603 5.62 23.902 4.09 36.284a114.083 114.083 0 0 1-14.47 42.35" vector-effect="non-scaling-stroke"></path><path fill="#2ecc40" fill-rule="evenodd" d="M85.927 75.575q.167-.39.195-.668a2.783 2.783 0 0 0-.25-1.113 36.173 36.173 0 0 0-9.85-13.634c-1.447-1.169-4.09-1.586-4.202-3.478-.111-1.726 1.391-3.534 2.031-5.343.39-1.14.835-1.308 1.976-.89q9.516 3.422 15.081 11.853c6.456 9.739 8.014 20.646 7.485 32.027-.056 1.28 0 2.448.445 3.617a77.91 77.91 0 0 1 4.174 18.253c.974-.556.946-1.447 1.169-2.142a94.605 94.605 0 0 0 3.561-15.86c1.475-11.353 1.252-22.622-3.088-33.446-4.23-10.49-11.27-18.086-22.566-20.952-4.035-1.03-4.007-1.002-6.317 2.42a208.688 208.688 0 0 0-18.42 33.53 191.993 191.993 0 0 0-14.274 47.914c-.195 1.308 0 1.67 1.28 1.586a36.173 36.173 0 0 1 4.897 0c1.642.14 2.087-.612 2.31-2.087 1.558-9.571 4.034-18.92 6.872-28.159 2.338-7.624 6.01-14.775 7.457-22.705.696-3.895 1.976-7.624 2.894-11.464.418-1.697.946-2.059 2.616-1.113a55.65 55.65 0 0 1 14.524 11.854m122.625 21.703c-17.836 41.821-41.125 78.912-79.44 104.734 2.95 1.113 5.787 2.114 8.57 3.255 1.113.473 1.948.278 2.95-.39a150.255 150.255 0 0 0 21.425-17.112c19.477-18.643 34.725-40.374 47.553-63.942q.695-1.224.667-2.643a169.733 169.733 0 0 0-1.725-23.902m-58.905 112.358c3.422 1.28 6.483 2.31 9.46 3.59 1.503.64 2.56.305 3.812-.557 14.052-9.823 26.072-21.787 37.258-34.643.751-.862 1.113-1.864 1.447-2.893a161.385 161.385 0 0 0 6.01-22.873c.167-.89.473-1.864-.111-3.005-16.083 23.234-33.975 44.41-57.876 60.38M74.185 32.92A108.518 108.518 0 0 0 58.02 45.385a141.908 141.908 0 0 0-32.11 47.97q-6.817 16.417-9.182 34.002c-.056.64-.473 1.753.278 1.864q2.56.418 5.064 0c1.169-.222.835-1.67.946-2.587.863-6.79 2.365-13.44 4.285-19.979q9.155-30.885 29.523-55.9 7.957-9.6 17.362-17.808" vector-effect="non-scaling-stroke"></path><path fill="#2ecc40" fill-rule="evenodd" d="m52.152 49.03-.445-.501a27.825 27.825 0 0 0-7.151 5.148 121.039 121.039 0 0 0-38.01 71.37c-.667 4.564-.695 4.508 3.34 4.453 1.168-.056 1.67-.362 1.67-1.559q.11-2.003.5-3.923a130.778 130.778 0 0 1 33.557-68.45q3.2-3.338 6.539-6.566" vector-effect="non-scaling-stroke"></path></svg></svg>